<svg width="24" height="24" viewBox="0 0 24 24" fill="none" xmlns="http://www.w3.org/2000/svg">
<g id="Icons/close">
<path id="Vector" d="M11.2438 12.1531L5.99375 17.4031C5.84375 17.5531 5.66875 17.6281 5.46875 17.6281C5.26875 17.6281 5.09375 17.5531 4.94375 17.4031C4.79375 17.2531 4.71875 17.0781 4.71875 16.8781C4.71875 16.6781 4.79375 16.5031 4.94375 16.3531L10.1937 11.1031L4.94375 5.85313C4.79375 5.70313 4.71875 5.52812 4.71875 5.32812C4.71875 5.12813 4.79375 4.95312 4.94375 4.80312C5.09375 4.65312 5.26875 4.57812 5.46875 4.57812C5.66875 4.57812 5.84375 4.65312 5.99375 4.80312L11.2438 10.0531L16.4937 4.80312C16.6437 4.65312 16.8187 4.57812 17.0187 4.57812C17.2187 4.57812 17.3937 4.65312 17.5437 4.80312C17.6937 4.95312 17.7687 5.12813 17.7687 5.32812C17.7687 5.52812 17.6937 5.70313 17.5437 5.85313L12.2938 11.1031L17.5437 16.3531C17.6937 16.5031 17.7687 16.6781 17.7687 16.8781C17.7687 17.0781 17.6937 17.2531 17.5437 17.4031C17.3937 17.5531 17.2187 17.6281 17.0187 17.6281C16.8187 17.6281 16.6437 17.5531 16.4937 17.4031L11.2438 12.1531Z" fill="#141414"/>
</g>
</svg>
