<svg width="515" height="56" viewBox="0 0 515 56" fill="none" xmlns="http://www.w3.org/2000/svg">
<rect width="515" height="56" fill="white"/>
<path d="M29.9266 16.75C25.0516 16.75 20.8891 19.9 19.3516 24.25H40.5766C39.0016 19.9 34.8391 16.75 29.9266 16.75Z" fill="#F2B200"/>
<path d="M29.9266 39.25C34.8391 39.25 39.0016 36.1375 40.5391 31.75H19.3516C20.8891 36.1375 25.0516 39.25 29.9266 39.25Z" fill="#83BF4F"/>
<path d="M19.3484 24.25C18.9359 25.4125 18.7109 26.6875 18.7109 28C18.7109 29.3125 18.9359 30.5875 19.3484 31.75H40.5734C40.9859 30.5875 41.2109 29.3125 41.2109 28C41.2109 26.6875 40.9859 25.4125 40.5734 24.25H19.3484Z" fill="white"/>
<path d="M29.9258 31C31.5826 31 32.9258 29.6569 32.9258 28C32.9258 26.3431 31.5826 25 29.9258 25C28.2689 25 26.9258 26.3431 26.9258 28C26.9258 29.6569 28.2689 31 29.9258 31Z" fill="#428BC1"/>
<path d="M29.9258 30.625C31.3755 30.625 32.5508 29.4497 32.5508 28C32.5508 26.5503 31.3755 25.375 29.9258 25.375C28.476 25.375 27.3008 26.5503 27.3008 28C27.3008 29.4497 28.476 30.625 29.9258 30.625Z" fill="white"/>
<path d="M28.9492 25.75C29.0528 25.75 29.1367 25.6661 29.1367 25.5625C29.1367 25.4589 29.0528 25.375 28.9492 25.375C28.8457 25.375 28.7617 25.4589 28.7617 25.5625C28.7617 25.6661 28.8457 25.75 28.9492 25.75Z" fill="#428BC1"/>
<path d="M28.3477 26.0898C28.4512 26.0898 28.5352 26.0059 28.5352 25.9023C28.5352 25.7988 28.4512 25.7148 28.3477 25.7148C28.2441 25.7148 28.1602 25.7988 28.1602 25.9023C28.1602 26.0059 28.2441 26.0898 28.3477 26.0898Z" fill="#428BC1"/>
<path d="M27.8594 26.5781C27.9629 26.5781 28.0469 26.4942 28.0469 26.3906C28.0469 26.2871 27.9629 26.2031 27.8594 26.2031C27.7558 26.2031 27.6719 26.2871 27.6719 26.3906C27.6719 26.4942 27.7558 26.5781 27.8594 26.5781Z" fill="#428BC1"/>
<path d="M27.5234 27.1758C27.627 27.1758 27.7109 27.0918 27.7109 26.9883C27.7109 26.8847 27.627 26.8008 27.5234 26.8008C27.4199 26.8008 27.3359 26.8847 27.3359 26.9883C27.3359 27.0918 27.4199 27.1758 27.5234 27.1758Z" fill="#428BC1"/>
<path d="M27.3359 27.8516C27.4395 27.8516 27.5234 27.7676 27.5234 27.6641C27.5234 27.5605 27.4395 27.4766 27.3359 27.4766C27.2324 27.4766 27.1484 27.5605 27.1484 27.6641C27.1484 27.7676 27.2324 27.8516 27.3359 27.8516Z" fill="#428BC1"/>
<path d="M27.3359 28.5273C27.4395 28.5273 27.5234 28.4434 27.5234 28.3398C27.5234 28.2363 27.4395 28.1523 27.3359 28.1523C27.2324 28.1523 27.1484 28.2363 27.1484 28.3398C27.1484 28.4434 27.2324 28.5273 27.3359 28.5273Z" fill="#428BC1"/>
<path d="M27.5234 29.2031C27.627 29.2031 27.7109 29.1192 27.7109 29.0156C27.7109 28.9121 27.627 28.8281 27.5234 28.8281C27.4199 28.8281 27.3359 28.9121 27.3359 29.0156C27.3359 29.1192 27.4199 29.2031 27.5234 29.2031Z" fill="#428BC1"/>
<path d="M27.8594 29.8008C27.9629 29.8008 28.0469 29.7168 28.0469 29.6133C28.0469 29.5097 27.9629 29.4258 27.8594 29.4258C27.7558 29.4258 27.6719 29.5097 27.6719 29.6133C27.6719 29.7168 27.7558 29.8008 27.8594 29.8008Z" fill="#428BC1"/>
<path d="M28.3477 30.2891C28.4512 30.2891 28.5352 30.2051 28.5352 30.1016C28.5352 29.998 28.4512 29.9141 28.3477 29.9141C28.2441 29.9141 28.1602 29.998 28.1602 30.1016C28.1602 30.2051 28.2441 30.2891 28.3477 30.2891Z" fill="#428BC1"/>
<path d="M28.9492 30.625C29.0528 30.625 29.1367 30.5411 29.1367 30.4375C29.1367 30.3339 29.0528 30.25 28.9492 30.25C28.8457 30.25 28.7617 30.3339 28.7617 30.4375C28.7617 30.5411 28.8457 30.625 28.9492 30.625Z" fill="#428BC1"/>
<path d="M29.5859 30.7773C29.6895 30.7773 29.7734 30.6934 29.7734 30.5898C29.7734 30.4863 29.6895 30.4023 29.5859 30.4023C29.4824 30.4023 29.3984 30.4863 29.3984 30.5898C29.3984 30.6934 29.4824 30.7773 29.5859 30.7773Z" fill="#428BC1"/>
<path d="M30.1094 30.6273C30.1094 30.5148 30.1844 30.4398 30.2594 30.4023C30.3719 30.4023 30.4469 30.4773 30.4844 30.5523C30.4844 30.6648 30.4094 30.7398 30.3344 30.7773C30.1844 30.8148 30.1094 30.7398 30.1094 30.6273Z" fill="#428BC1"/>
<path d="M30.9375 30.625C31.0411 30.625 31.125 30.5411 31.125 30.4375C31.125 30.3339 31.0411 30.25 30.9375 30.25C30.8339 30.25 30.75 30.3339 30.75 30.4375C30.75 30.5411 30.8339 30.625 30.9375 30.625Z" fill="#428BC1"/>
<path d="M31.5352 30.2891C31.6387 30.2891 31.7227 30.2051 31.7227 30.1016C31.7227 29.998 31.6387 29.9141 31.5352 29.9141C31.4316 29.9141 31.3477 29.998 31.3477 30.1016C31.3477 30.2051 31.4316 30.2891 31.5352 30.2891Z" fill="#428BC1"/>
<path d="M32.0234 29.8008C32.127 29.8008 32.2109 29.7168 32.2109 29.6133C32.2109 29.5097 32.127 29.4258 32.0234 29.4258C31.9199 29.4258 31.8359 29.5097 31.8359 29.6133C31.8359 29.7168 31.9199 29.8008 32.0234 29.8008Z" fill="#428BC1"/>
<path d="M32.3594 29.2031C32.4629 29.2031 32.5469 29.1192 32.5469 29.0156C32.5469 28.9121 32.4629 28.8281 32.3594 28.8281C32.2558 28.8281 32.1719 28.9121 32.1719 29.0156C32.1719 29.1192 32.2558 29.2031 32.3594 29.2031Z" fill="#428BC1"/>
<path d="M32.5469 28.5273C32.6504 28.5273 32.7344 28.4434 32.7344 28.3398C32.7344 28.2363 32.6504 28.1523 32.5469 28.1523C32.4433 28.1523 32.3594 28.2363 32.3594 28.3398C32.3594 28.4434 32.4433 28.5273 32.5469 28.5273Z" fill="#428BC1"/>
<path d="M32.5492 27.8516C32.4367 27.8516 32.3617 27.7766 32.3242 27.7016C32.3242 27.5891 32.3992 27.5141 32.4742 27.4766C32.5867 27.4766 32.6617 27.5516 32.6992 27.6266C32.7367 27.7391 32.6617 27.8141 32.5492 27.8516Z" fill="#428BC1"/>
<path d="M32.3594 27.1758C32.4629 27.1758 32.5469 27.0918 32.5469 26.9883C32.5469 26.8847 32.4629 26.8008 32.3594 26.8008C32.2558 26.8008 32.1719 26.8847 32.1719 26.9883C32.1719 27.0918 32.2558 27.1758 32.3594 27.1758Z" fill="#428BC1"/>
<path d="M32.0234 26.5781C32.127 26.5781 32.2109 26.4942 32.2109 26.3906C32.2109 26.2871 32.127 26.2031 32.0234 26.2031C31.9199 26.2031 31.8359 26.2871 31.8359 26.3906C31.8359 26.4942 31.9199 26.5781 32.0234 26.5781Z" fill="#428BC1"/>
<path d="M31.5352 26.0898C31.6387 26.0898 31.7227 26.0059 31.7227 25.9023C31.7227 25.7988 31.6387 25.7148 31.5352 25.7148C31.4316 25.7148 31.3477 25.7988 31.3477 25.9023C31.3477 26.0059 31.4316 26.0898 31.5352 26.0898Z" fill="#428BC1"/>
<path d="M31.1234 25.6394C31.0859 25.7519 30.9734 25.7894 30.8609 25.7519C30.7484 25.7144 30.7109 25.6019 30.7484 25.4894C30.7859 25.3769 30.8984 25.3394 31.0109 25.3769C31.1234 25.4519 31.1609 25.5644 31.1234 25.6394ZM30.4484 25.4144C30.4484 25.5269 30.3359 25.6019 30.2234 25.5644C30.1109 25.5644 30.0359 25.4519 30.0734 25.3394C30.0734 25.2269 30.1859 25.1519 30.2984 25.1894C30.4109 25.2269 30.4859 25.3394 30.4484 25.4144ZM29.7734 25.3769C29.7734 25.4894 29.6984 25.5644 29.6234 25.6019C29.5109 25.6019 29.4359 25.5269 29.3984 25.4519C29.3984 25.3394 29.4734 25.2644 29.5484 25.2269C29.6609 25.1894 29.7734 25.2644 29.7734 25.3769Z" fill="#428BC1"/>
<path d="M29.9219 28.5625C30.2325 28.5625 30.4844 28.3107 30.4844 28C30.4844 27.6893 30.2325 27.4375 29.9219 27.4375C29.6112 27.4375 29.3594 27.6893 29.3594 28C29.3594 28.3107 29.6112 28.5625 29.9219 28.5625Z" fill="#428BC1"/>
<path d="M29.925 25.375L29.85 26.9875L29.925 28L30.0375 26.9875L29.925 25.375ZM29.25 25.45L29.5875 27.0625L29.925 28L29.775 26.9875L29.25 25.45Z" fill="#428BC1"/>
<path d="M28.6109 25.7148L29.3609 27.1773L29.9234 28.0023L29.5109 27.0648L28.6109 25.7148ZM28.0859 26.1273L29.1734 27.3648L29.9234 28.0023L29.2859 27.2148L28.0859 26.1273Z" fill="#428BC1"/>
<path d="M27.6719 26.6875L29.0219 27.5875L29.9219 28L29.0969 27.4L27.6719 26.6875Z" fill="#428BC1"/>
<path d="M27.4094 27.3281L28.9469 27.8156L29.9219 28.0031L28.9844 27.6656L27.4094 27.3281ZM27.2969 28.0031L28.9469 28.0781L29.9219 28.0031L28.9469 27.9281L27.2969 28.0031Z" fill="#428BC1"/>
<path d="M27.4102 28.675L28.9852 28.3375L29.9227 28L28.9477 28.1875L27.4102 28.675ZM27.6727 29.3125L29.0977 28.6L29.9227 28L29.0227 28.4125L27.6727 29.3125Z" fill="#428BC1"/>
<path d="M28.0859 29.8375L29.2859 28.7875L29.9234 28L29.1734 28.6375L28.0859 29.8375ZM28.6109 30.2875L29.5109 28.9L29.9234 28L29.3609 28.825L28.6109 30.2875Z" fill="#428BC1"/>
<path d="M29.25 30.55L29.775 29.0125L29.925 28L29.5875 28.9375L29.25 30.55ZM29.925 30.625L30.0375 29.0125L29.925 28L29.85 29.0125L29.925 30.625ZM30.6 30.55L30.3 28.9375L29.925 28L30.1125 29.0125L30.6 30.55Z" fill="#428BC1"/>
<path d="M31.2344 30.2875L30.5219 28.825L29.9219 28L30.3719 28.9375L31.2344 30.2875ZM31.7969 29.8375L30.7094 28.6375L29.9219 28L30.5969 28.7875L31.7969 29.8375Z" fill="#428BC1"/>
<path d="M32.2094 29.3156L30.8594 28.4156L29.9219 28.0031L30.7469 28.6031L32.2094 29.3156ZM32.4719 28.6781L30.9344 28.1906L29.9219 28.0031L30.8969 28.3406L32.4719 28.6781ZM32.5469 28.0031L30.9344 27.8906L29.9219 28.0031L30.9344 28.0781L32.5469 28.0031ZM32.4719 27.3281L30.8969 27.6656L29.9219 28.0031L30.9344 27.8156L32.4719 27.3281Z" fill="#428BC1"/>
<path d="M32.2094 26.6891L30.7469 27.4016L29.9219 28.0016L30.8594 27.5891L32.2094 26.6891ZM31.7969 26.1641L30.5969 27.2141L29.9219 28.0016L30.7094 27.3641L31.7969 26.1641Z" fill="#428BC1"/>
<path d="M31.2344 25.7148L30.3719 27.1023L29.9219 28.0023L30.5219 27.1773L31.2344 25.7148Z" fill="#428BC1"/>
<path d="M30.6344 25.4531L30.1094 26.9906L29.9219 28.0031L30.2969 27.0656L30.6344 25.4531Z" fill="#428BC1"/>
<path d="M67.53 20.794H69.128V33H67.53V20.794ZM75.867 24.313C76.3204 24.313 76.768 24.3923 77.21 24.551C77.652 24.6983 78.0487 24.9307 78.4 25.248C78.7514 25.554 79.0347 25.9563 79.25 26.455C79.4654 26.9423 79.573 27.526 79.573 28.206V33H78.026V28.24C78.026 27.8773 77.9694 27.5543 77.856 27.271C77.7427 26.9877 77.5897 26.7497 77.397 26.557C77.2044 26.3643 76.9777 26.217 76.717 26.115C76.4564 26.013 76.173 25.962 75.867 25.962C75.595 25.962 75.3344 26.0017 75.085 26.081C74.8357 26.1603 74.609 26.2737 74.405 26.421C74.201 26.557 74.0254 26.7213 73.878 26.914C73.742 27.1067 73.6514 27.3163 73.606 27.543V33H72.059V24.517H73.555V25.452C73.6797 25.1233 73.9404 24.8513 74.337 24.636C74.7337 24.4207 75.2437 24.313 75.867 24.313ZM81.9812 30.569C81.7545 30.0137 81.6412 29.4073 81.6412 28.75C81.6412 28.0927 81.7602 27.492 81.9982 26.948C82.2362 26.404 82.5535 25.9393 82.9502 25.554C83.3469 25.1573 83.8059 24.8513 84.3272 24.636C84.8599 24.4207 85.4152 24.313 85.9932 24.313C86.6392 24.313 87.1945 24.4207 87.6592 24.636C88.1239 24.8513 88.4242 25.1177 88.5602 25.435V20.624H90.1072V33H88.6282V32.099C88.4922 32.4163 88.1805 32.6827 87.6932 32.898C87.2172 33.102 86.6562 33.204 86.0102 33.204C85.4209 33.204 84.8599 33.0963 84.3272 32.881C83.8059 32.6657 83.3412 32.3653 82.9332 31.98C82.5365 31.5833 82.2192 31.113 81.9812 30.569ZM83.1882 28.784C83.1882 29.634 83.4489 30.3083 83.9702 30.807C84.4915 31.3057 85.1829 31.555 86.0442 31.555C86.6335 31.555 87.1605 31.4247 87.6252 31.164C88.1012 30.892 88.4129 30.552 88.5602 30.144V27.373C88.4129 26.965 88.1012 26.6307 87.6252 26.37C87.1605 26.098 86.6335 25.962 86.0442 25.962C85.1829 25.962 84.4915 26.217 83.9702 26.727C83.4489 27.237 83.1882 27.9227 83.1882 28.784ZM92.877 24.517H94.424V33H92.877V24.517ZM92.52 21.763C92.52 21.4457 92.6277 21.1793 92.843 20.964C93.0697 20.7373 93.336 20.624 93.642 20.624C93.9593 20.624 94.2257 20.7373 94.441 20.964C94.6677 21.1793 94.781 21.4457 94.781 21.763C94.781 22.069 94.6677 22.3353 94.441 22.562C94.2257 22.7773 93.9593 22.885 93.642 22.885C93.336 22.885 93.0697 22.7773 92.843 22.562C92.6277 22.3353 92.52 22.069 92.52 21.763ZM102.311 29.991C102.175 29.753 101.903 29.5773 101.495 29.464C101.087 29.3393 100.65 29.277 100.186 29.277C99.5398 29.277 99.0355 29.379 98.6728 29.583C98.3215 29.7757 98.1458 30.0533 98.1458 30.416C98.1458 30.756 98.3158 31.0337 98.6558 31.249C99.0071 31.453 99.5171 31.555 100.186 31.555C100.412 31.555 100.633 31.5323 100.849 31.487C101.075 31.4417 101.285 31.3793 101.478 31.3C101.67 31.2207 101.84 31.1243 101.988 31.011C102.135 30.8977 102.243 30.773 102.311 30.637V29.991ZM97.0578 25.792C97.3751 25.35 97.8115 24.993 98.3668 24.721C98.9221 24.449 99.5398 24.313 100.22 24.313C101.353 24.313 102.243 24.6077 102.889 25.197C103.535 25.775 103.858 26.591 103.858 27.645V33H102.362V32.252C102.26 32.3993 102.118 32.5297 101.937 32.643C101.755 32.7563 101.551 32.8583 101.325 32.949C101.109 33.0283 100.883 33.0907 100.645 33.136C100.407 33.1813 100.169 33.204 99.9308 33.204C98.9221 33.204 98.1118 32.966 97.4998 32.49C96.8991 32.0027 96.5988 31.3227 96.5988 30.45C96.5988 30.008 96.6838 29.617 96.8538 29.277C97.0351 28.937 97.2788 28.648 97.5848 28.41C97.8908 28.172 98.2478 27.9963 98.6558 27.883C99.0638 27.7583 99.5058 27.696 99.9818 27.696C100.174 27.696 100.378 27.713 100.594 27.747C100.82 27.7697 101.036 27.8093 101.24 27.866C101.455 27.9227 101.653 27.9963 101.835 28.087C102.016 28.1663 102.175 28.2683 102.311 28.393V27.985C102.311 27.6337 102.248 27.3333 102.124 27.084C101.999 26.8233 101.835 26.6137 101.631 26.455C101.427 26.285 101.183 26.1603 100.9 26.081C100.628 26.0017 100.339 25.962 100.033 25.962C99.4888 25.962 98.9958 26.0697 98.5538 26.285C98.1118 26.5003 97.7605 26.7837 97.4998 27.135L97.0578 25.792Z" fill="#141414"/>
</svg>
